<?xml version="1.0" encoding="utf-8"?>
<!-- Svg Vector Icons : http://www.onlinewebfonts.com/icon -->
<!DOCTYPE svg PUBLIC "-//W3C//DTD SVG 1.1//EN" "http://www.w3.org/Graphics/SVG/1.1/DTD/svg11.dtd">
<svg version="1.1" xmlns="http://www.w3.org/2000/svg" xmlns:xlink="http://www.w3.org/1999/xlink" x="0px" y="0px" viewBox="0 0 256 256" enable-background="new 0 0 256 256" xml:space="preserve">
<metadata> Svg Vector Icons : http://www.onlinewebfonts.com/icon </metadata>
<g><g><g><path fill="#000000" d="M10,48c0,0.1,13.6,18.3,30.1,40.4l30.1,40.2L40.7,168c-16.2,21.6-29.6,39.6-29.6,39.9c-0.1,0.3,8.6,0.4,25.6,0.4l25.8-0.1l30-39.7c16.5-21.8,29.9-39.8,29.8-40c0-0.2-13.3-17.8-29.4-39.1C76.7,68,63.1,49.9,62.6,49.1l-0.9-1.4H35.8C21.6,47.7,10,47.8,10,48z"/><path fill="#000000" d="M120.2,94.3c13.9,18.6,25.3,34,25.3,34.3c0,0.2-11,15.1-24.4,33c-13.4,17.9-24.5,32.9-24.7,33.3c-0.2,0.6,2.9,0.7,21.5,0.7h21.7l25.1-33.5l25.1-33.5l-25.5-34l-25.5-33.9l-22-0.1l-22-0.1L120.2,94.3z"/><path fill="#000000" d="M169.7,73.5c0,0.1,9.3,12.5,20.7,27.6l20.6,27.4l-20.2,26.8c-11.1,14.7-20.2,26.9-20.2,27.1c0,0.1,7.8,0.3,17.4,0.3l17.3,0l20.3-27l20.3-27.1L225.3,101l-20.7-27.6h-17.4C177.5,73.3,169.7,73.4,169.7,73.5z"/></g></g></g>
</svg>